<?xml version="1.0" standalone="no"?>
<!DOCTYPE svg PUBLIC "-//W3C//DTD SVG 20010904//EN"
 "http://www.w3.org/TR/2001/REC-SVG-20010904/DTD/svg10.dtd">
<svg version="1.0" xmlns="http://www.w3.org/2000/svg"
 width="118.000000pt" height="113.000000pt" viewBox="0 0 118.000000 113.000000"
 preserveAspectRatio="xMidYMid meet">

<g transform="translate(0.000000,113.000000) scale(0.100000,-0.100000)"
fill="#000000" stroke="none">
<path d="M435 1011 c-132 -19 -131 -17 -80 -149 58 -150 76 -240 80 -397 3
-119 2 -130 -6 -75 -21 137 -50 237 -97 333 l-49 97 23 6 c28 7 27 5 14 38
l-9 26 -48 -18 c-26 -10 -49 -25 -51 -33 -1 -8 15 -47 38 -85 56 -97 98 -201
120 -302 27 -122 23 -141 -9 -47 -34 98 -51 133 -108 213 -41 58 -44 64 -28
76 14 10 15 16 6 34 -14 27 -13 27 -61 2 -22 -11 -40 -27 -40 -36 0 -8 23 -43
51 -77 68 -84 143 -239 177 -367 23 -87 31 -107 52 -117 18 -9 91 -13 260 -13
204 0 240 2 270 18 60 30 60 31 58 422 -1 195 -4 311 -5 258 -2 -54 -6 -98 -9
-98 -17 0 -45 24 -40 35 2 7 -2 19 -10 25 -9 9 -14 9 -14 2 0 -24 -30 2 -31
27 0 14 -11 -16 -24 -67 -54 -224 -210 -410 -310 -372 -37 14 -52 48 -60 135
-9 105 -37 234 -75 346 -17 50 -30 93 -27 95 2 2 41 10 85 16 l82 12 32 -31
c42 -40 69 -46 143 -35 33 6 61 9 62 8 2 -1 -20 -35 -48 -75 -28 -40 -50 -73
-48 -74 2 -2 21 -15 42 -31 21 -15 40 -26 41 -25 2 2 19 29 39 59 l37 54 -33
35 c-17 19 -27 31 -22 28 6 -3 11 3 11 14 0 13 -11 23 -33 31 -38 14 -34 28
10 29 18 0 27 3 20 5 -6 3 -41 1 -78 -4 l-67 -9 -45 39 c-24 21 -52 38 -61 37
-9 -1 -66 -8 -127 -18z"/>
<path d="M853 973 c9 -2 23 -2 30 0 6 3 -1 5 -18 5 -16 0 -22 -2 -12 -5z"/>
<path d="M860 850 c0 -5 5 -10 10 -10 6 0 10 5 10 10 0 6 -4 10 -10 10 -5 0
-10 -4 -10 -10z"/>
<path d="M680 731 c0 -5 -19 -23 -42 -40 -39 -29 -44 -37 -55 -98 -7 -37 -11
-68 -9 -70 6 -6 56 76 56 92 0 8 9 15 20 15 23 0 27 -25 6 -37 -8 -4 -28 -27
-45 -50 l-31 -43 62 34 c53 30 64 41 79 81 10 25 23 52 29 60 8 10 5 17 -17
32 -44 31 -53 35 -53 24z"/>
</g>
</svg>
